<svg xmlns="http://www.w3.org/2000/svg" version="1.1" xmlns:xlink="http://www.w3.org/1999/xlink" width="512" height="512" x="0" y="0" viewBox="0 0 512 512" style="enable-background:new 0 0 512 512" xml:space="preserve" class=""><g><path d="M512 256c0 141.385-114.615 256-256 256S0 397.385 0 256 114.615 0 256 0s256 114.615 256 256z" style="" fill="#ffe67d" data-original="#ffe67d" class=""></path><path d="m389.719 205.58-36.38 99.953-26.971 74.103-30.109 82.723c-5.49 15.085-22.17 22.863-37.255 17.372a29.34 29.34 0 0 1-4.034-1.823 29.231 29.231 0 0 1-3.866 1.736c-15.085 5.49-31.764-2.287-37.254-17.372l-93.46-256.779c-5.142-14.128 2.142-29.749 16.27-34.891l3.465-1.261c14.128-5.142 29.749 2.142 34.891 16.27l36.38 99.953 15.536 42.686V172.852c0-15.035 12.188-27.223 27.222-27.223h3.687c15.035 0 27.223 12.188 27.223 27.223v150.292l50.026-137.446c5.142-14.128 20.763-21.412 34.891-16.27l3.465 1.261c14.131 5.142 21.415 20.763 16.273 34.891z" style="" fill="#b9783d" data-original="#b9783d"></path><path d="M382.383 176.871c-10.867.987-20.725 8.076-24.705 19.009l-92.829 255.046c-2.378 6.533-2.249 13.358-.133 19.449a29.096 29.096 0 0 0 3.637 2.046c-.779.366-1.581.691-2.396.989a29.16 29.16 0 0 0 5.597 7.958 28.943 28.943 0 0 1-12.55-1.637 29.284 29.284 0 0 1-4.042-1.827 29.06 29.06 0 0 1-3.857 1.74c-15.085 5.49-31.764-2.287-37.254-17.372l-92.829-255.046c-5.49-15.084 2.287-31.764 17.372-37.254a28.943 28.943 0 0 1 12.55-1.637c-7.69 7.741-10.685 19.509-6.706 30.442l82.696 227.205V174.695c0-16.053 13.013-29.066 29.066-29.066 4.418 0 8.603.99 12.353 2.754-9.875 4.644-16.713 14.678-16.713 26.312v240.286l82.822-227.551c5.49-15.085 22.17-22.862 37.254-17.372a28.946 28.946 0 0 1 10.667 6.813z" style="" fill="#965028" data-original="#965028"></path><path d="m312.25 34.317-10.034 35.589-15.006 45.216c-8.012-1.987-19.034-3.215-31.21-3.215s-23.198 1.229-31.21 3.215l-14.83-44.686-8.592-36.119c-2.262-6.816.189-14.372 6.132-18.404C222.3 5.87 236.766 2.5 256 2.5s35.317 3.37 50.118 13.413c5.943 4.033 8.394 11.589 6.132 18.404zm107 13.433c.195-.553.098-1.17-.05-1.737-.694-2.672 1.049-4.863-1.2-3.263L359.25 87c-6.268 4.46-13.507 7.332-17.191 13.639-8.526 14.598-9.796 32.882-2.27 49.021 6.599 14.152 18.666 24.009 32.512 28.229 12.041 3.669 25.426 3.076 37.732-2.662 8.736-4.074 16.379-9.977 21.088-17.771 5.739-9.499 7.948-18.833 8.046-27.952.337-31.595-28.505-57.436-19.917-81.754zM91 40c-6.5 23.75-10.262 57.242-3.114 86.821 1.388 5.743 2.987 11.133 4.751 15.979 10.847 29.802 25.856 33.363 52.516 45.74 12.467-26.618 21.676-38.993 10.828-68.795-1.797-4.937-3.892-10.298-6.78-15.592C134.25 76.75 113.75 56.5 91 40z" style="" fill="#80391b" data-original="#80391b"></path><path d="m314.027 34.317-12.692 38.244c-4.768-.694-8.581-4.296-9.603-8.953V39.431c0-6.39-5.18-11.569-11.569-11.569h-.878c-6.39 0-11.569 5.18-11.569 11.569v2.074c-1.165 5.158-5.767 9.014-11.277 9.014h-.878c-5.51 0-10.112-3.855-11.277-9.014v-2.074c0-6.39-5.18-11.569-11.569-11.569h-.878c-6.389 0-11.569 5.18-11.569 11.569v24.18c-1.022 4.656-4.835 8.257-9.603 8.951l-12.692-38.244c-2.262-6.816.189-14.372 6.132-18.404C218.905 5.87 236.766 0 256 0s37.095 5.87 51.895 15.913c5.943 4.033 8.394 11.589 6.132 18.404z" style="" fill="#ff5a5f" data-original="#ff5a5f"></path><path d="M439.049 132.533c-2.722 1.839-6.25 2.403-9.573 1.193-4.762-1.733-7.523-6.521-6.888-11.346l.789-2.167c2.004-5.507-.835-11.597-6.342-13.601-5.507-2.004-11.597.835-13.601 6.342l-10.467 28.759c-2.615 4.104-7.807 5.997-12.57 4.264-4.762-1.733-7.522-6.521-6.888-11.346l10.467-28.759c2.004-5.507-.835-11.597-6.342-13.601-5.507-2.005-11.597.835-13.601 6.342l-3.208 8.815c-2.615 4.104-7.807 5.997-12.57 4.264-4.202-1.529-6.843-5.438-6.972-9.651a52.694 52.694 0 0 1 15.768-17.788l59.877-43.624c2.249-1.6 5.404-.452 6.099 2.22.148.568.245 1.184.049 1.737-8.863 25.093 18.051 55.177 15.973 87.947z" style="" fill="#6e96dc" data-original="#6e96dc"></path><path d="m129.777 113.996-7.345-20.18c-2.087-5.733-8.426-8.69-14.16-6.603s-8.69 8.426-6.603 14.16l7.345 20.18c.698 5.047-2.164 10.069-7.145 11.882-5.38 1.958-11.293-.525-13.726-5.575-7.365-29.7-9.074-69.308 1.488-91.861 22.588 10.487 46.739 41.927 60.188 69.413 1.383 5.433-1.551 11.135-6.931 13.093-4.981 1.813-10.402-.194-13.111-4.509z" style="" fill="#3caf96" data-original="#3caf96"></path><path d="M376.186 302.729 359.129 490.36C327.576 504.264 292.694 512 256 512s-71.576-7.736-103.128-21.641l-17.057-187.631c-.496-5.456 3.8-10.159 9.278-10.159h221.815c5.478 0 9.773 4.704 9.278 10.16z" style="" fill="#9bb9c3" data-original="#9bb9c3"></path><path d="m360.374 476.656-1.246 13.703C327.576 504.264 292.694 512 256 512s-71.576-7.736-103.128-21.641l-17.057-187.631c-.496-5.456 3.8-10.159 9.278-10.159h24.934c-.009.81-.027 1.618-.027 2.431 0 102.173 71.635 185 160 185 10.387 0 20.539-1.158 30.374-3.344z" style="" fill="#87a0af" data-original="#87a0af"></path><path d="M400.024 177.268a62.36 62.36 0 0 1-.786 2.034l.04.015-19.882 54.626v-.001l-.281.773-54.626-19.882 6.749-18.542 13.415-36.856.04.015c.224-.691.456-1.379.705-2.063 1.373-3.771 14.714-2.377 29.799 3.113 15.084 5.489 26.199 12.997 24.827 16.768zm-216.258 32.378-19.882-54.626-.04.015a63.444 63.444 0 0 0-.705-2.063c-1.373-3.771-14.714-2.378-29.799 3.113s-26.201 12.999-24.828 16.77c.249.684.514 1.36.786 2.034l-.041.015 13.415 36.856 6.749 18.542 54.626-19.882-.281-.774zm104.836-102.512c-8.102-2.197-19.706-3.574-32.601-3.574s-24.499 1.377-32.602 3.574c-1.842.5-2.975 2.352-2.621 4.228l5.762 30.539.394 37.618v19.732h58.132v-.821l.394-56.529 5.762-30.539c.354-1.876-.778-3.729-2.62-4.228z" style="" fill="#fff5af" data-original="#fff5af"></path><path d="m382.92 190.268-.058.159c-1.299 3.57-5.147 5.477-8.796 4.42a29.316 29.316 0 0 1-1.87-.611l-12.054-4.387-2.844 7.815 12.054 4.387c.357.13.715.252 1.073.367 3.926 1.26 6.09 5.447 4.68 9.321l-.058.158c-1.299 3.57-5.147 5.477-8.796 4.42a29.304 29.304 0 0 1-1.87-.61l-12.054-4.387-4.385 12.049-23.453-8.536 6.749-18.542.481-1.321 4.971-13.657 7.963-21.878.04.015c.224-.691.456-1.379.705-2.063 1.373-3.771 14.714-2.377 29.799 3.113 4.198 1.528 8.087 3.212 11.486 4.928-9.615-2.257-16.841-2.227-17.832.495a61.9 61.9 0 0 0-.705 2.063l-.041-.015-2.992 8.222 12.054 4.387c.357.13.715.252 1.073.367 3.926 1.259 6.09 5.446 4.68 9.321zm-216.713 5.128c-1.41-3.875-5.759-5.691-9.577-4.132-.348.142-.701.279-1.058.409l-12.055 4.387-2.844-7.815 12.054-4.387a29.552 29.552 0 0 0 1.825-.734c3.474-1.536 5.196-5.471 3.897-9.04l-.058-.158c-1.41-3.875-5.759-5.691-9.576-4.132-.348.143-.701.279-1.058.408l-12.054 4.387-2.992-8.222.041-.015a62.36 62.36 0 0 1-.786-2.034c-.99-2.722 4.526-7.39 13.342-11.841-3.708.87-7.769 2.08-11.967 3.608-15.085 5.49-26.201 12.999-24.828 16.77.249.684.514 1.36.786 2.034l-.041.015 7.963 21.878 2.543 6.987 2.908 7.99 6.749 18.542 23.453-8.536-4.385-12.049 12.054-4.387a29.552 29.552 0 0 0 1.825-.734c3.474-1.536 5.196-5.471 3.897-9.04l-.058-.159zm99.647-46.372c-.376.015-.754.022-1.134.022h-12.828v-18.122c-.104.004-5.32-27.112-5.32-27.112-9.07.491-17.104 1.677-23.173 3.322-1.842.5-2.975 2.352-2.621 4.228l5.762 30.539.394 21.679v35.671h24.958v-12.822h12.828c.661 0 1.316-.022 1.966-.066 3.79-.255 6.754-3.364 6.754-7.162v-.168c0-4.123-3.465-7.318-7.586-7.158-.376.015-.754.022-1.134.022h-12.828v-8.316h12.828c.661 0 1.316-.022 1.966-.066 3.79-.255 6.754-3.364 6.754-7.162v-.168c0-4.126-3.465-7.32-7.586-7.161z" style="" fill="#e6b464" data-original="#e6b464"></path></g></svg>